<svg version="1.1" id="Layer_1" xmlns="http://www.w3.org/2000/svg" xmlns:xlink="http://www.w3.org/1999/xlink" x="0px" y="0px"
	 width="100%" viewBox="0 0 500 500" enable-background="new 0 0 500 500" xml:space="preserve">
<path fill="#81017F" opacity="1.000000" stroke="none" 
	d="
M241.000000,1.000002 
	C246.022095,1.000000 251.044189,1.000000 256.664734,1.373753 
	C258.268127,2.160087 259.252106,2.863370 260.281372,2.937432 
	C266.345367,3.373766 272.418060,3.703855 278.491852,3.981369 
	C280.675507,4.081141 282.870422,3.935570 285.465149,3.957903 
	C287.228271,4.100019 288.586426,4.186202 290.093506,4.600662 
	C294.524323,5.579165 298.806244,6.229391 303.443115,6.944259 
	C304.518890,7.039156 305.239716,7.069411 306.173157,7.384317 
	C312.292603,9.099383 318.199432,10.529799 324.320984,12.030537 
	C324.535736,12.100861 324.950775,12.279805 325.081238,12.594856 
	C326.486542,13.269152 327.761383,13.628397 329.277252,14.010101 
	C329.518250,14.032561 330.002014,14.014590 330.105713,14.366499 
	C331.820923,15.141950 333.432465,15.565493 335.365479,16.028336 
	C336.116882,16.108469 336.546753,16.149300 337.135864,16.363213 
	C337.535736,16.749741 337.813660,16.888594 338.513733,16.988617 
	C346.129181,20.002499 353.635315,22.453815 360.536133,26.062614 
	C377.694061,35.035416 394.151428,44.966862 409.302338,57.361012 
	C424.197784,69.546188 437.362701,83.238472 449.271271,98.040962 
	C460.863098,112.449722 470.381714,128.445969 478.131958,145.337143 
	C485.586456,161.583710 491.921417,178.235794 494.836548,196.210464 
	C493.922089,198.935730 492.860199,201.549957 496.945770,202.434082 
	C496.998322,203.542450 496.984802,204.284866 496.805542,205.384674 
	C496.442902,207.031342 495.969147,208.347946 496.093323,209.605499 
	C497.012878,218.916702 498.006256,228.221588 499.124817,237.510590 
	C499.232269,238.402740 500.350830,239.173096 501.000000,240.000000 
	C501.000000,249.020889 501.000000,258.041779 500.639343,267.601440 
	C496.107910,269.872498 499.323639,273.048492 498.830322,275.498932 
	C496.127075,288.927399 493.309784,302.333527 490.714386,315.782593 
	C489.873016,320.142609 489.584015,324.609192 489.003296,329.414612 
	C485.011261,339.446747 481.223419,349.163727 477.041534,358.708069 
	C474.637695,364.194366 471.807739,369.524780 468.787750,374.702637 
	C464.874878,381.411346 460.814209,388.060333 456.376801,394.428131 
	C452.940521,399.359314 448.819855,403.812561 445.018311,408.490417 
	C440.785309,413.699127 436.935913,419.281921 432.252960,424.046814 
	C426.367859,430.035004 419.623627,435.168915 413.571625,441.004883 
	C396.488678,457.478058 376.238586,469.161163 355.054535,479.187988 
	C339.487000,486.556458 323.153839,492.132294 305.782959,494.854980 
	C298.457520,495.725433 291.419403,496.856079 284.389008,498.032745 
	C284.202118,498.063995 284.098938,498.595367 283.551392,498.930420 
	C281.764038,499.644867 280.382019,500.322449 279.000000,501.000000 
	C266.645782,501.000000 254.291550,501.000000 241.342117,500.627319 
	C239.066208,499.840210 237.406296,499.234009 235.700699,499.049072 
	C231.464218,498.589783 227.153152,498.634308 222.969376,497.912323 
	C214.708878,496.486908 206.501648,494.739716 198.296005,493.013306 
	C190.365280,491.344818 182.472824,489.494080 174.540527,487.833466 
	C173.409073,487.596588 172.147766,487.979889 170.556717,488.027527 
	C168.098511,487.456085 165.915878,487.199463 163.979782,486.368469 
	C147.472198,479.283112 130.698318,472.691223 116.076881,461.919006 
	C104.972794,453.738159 93.334496,446.157990 82.976990,437.115753 
	C64.902176,421.336090 49.825413,402.711700 37.221561,382.344635 
	C30.591454,371.630798 25.079103,360.091736 20.257080,348.431091 
	C15.662302,337.319977 12.620728,325.566589 9.135281,313.839600 
	C8.637826,311.049316 7.901406,308.514954 7.134357,305.662231 
	C7.035801,304.923950 6.967874,304.504028 7.136949,303.838806 
	C6.628696,301.703094 5.883440,299.812683 5.124768,297.562897 
	C5.066047,296.485992 5.020741,295.768463 5.227391,294.741699 
	C5.645621,293.636383 6.022814,292.819336 5.945851,292.047577 
	C5.084697,283.411926 4.246172,274.771698 3.165294,266.162323 
	C2.941409,264.379059 1.747074,262.717590 1.000001,261.000000 
	C1.000000,254.645599 1.000000,248.291214 1.368857,241.340729 
	C2.161100,234.819702 2.584486,228.894760 3.035483,222.602249 
	C3.131126,221.501984 3.199157,220.769272 3.599678,219.887878 
	C4.257834,215.456024 4.583502,211.172882 4.972694,206.537964 
	C5.074653,205.472427 5.113087,204.758682 5.330520,203.881012 
	C5.734029,203.473495 5.885817,203.190842 6.017035,202.565826 
	C6.140835,201.858932 6.212480,201.455353 6.593752,200.924011 
	C6.930371,199.195251 6.957362,197.594254 7.011111,195.591492 
	C8.557451,189.379257 9.616597,183.398499 11.690008,177.792908 
	C16.376953,165.121506 21.178789,152.462784 26.690125,140.137054 
	C30.120127,132.466064 34.931599,125.412788 39.307674,117.925926 
	C39.723740,117.533844 39.881611,117.256287 39.971745,116.970436 
	C39.977581,117.003990 39.934078,116.951492 40.274136,116.887527 
	C41.049728,115.856041 41.485268,114.888519 41.953621,113.938110 
	C41.986435,113.955231 41.914501,113.972679 42.154362,113.790932 
	C42.572880,113.050560 42.751541,112.491943 42.965469,111.945587 
	C43.000744,111.957848 42.926914,111.959709 43.151375,111.844238 
	C43.575638,111.462723 43.775440,111.196686 43.974545,110.964027 
	C43.973846,110.997414 43.923870,110.953110 44.280037,110.912003 
	C45.418587,109.567650 46.200966,108.264412 46.994095,106.981430 
	C47.004845,107.001694 46.959427,106.995193 47.176331,106.870628 
	C47.593563,106.483276 47.793896,106.220490 48.054878,105.736488 
	C48.115536,105.515282 48.232269,105.071632 48.517784,104.975708 
	C49.192989,104.232224 49.582672,103.584671 49.979614,102.968414 
	C49.986870,102.999718 49.932320,102.965729 50.307220,102.962212 
	C54.960419,101.505165 55.841812,97.651146 57.007107,94.001541 
	C57.002136,94.001831 57.003151,94.011681 57.214043,93.881294 
	C57.686810,93.535660 57.878773,93.269913 58.055298,92.722015 
	C58.109776,92.490379 58.236202,92.031563 58.405670,91.884743 
	C58.784859,91.515518 58.930153,91.256927 59.098175,90.747665 
	C59.363701,90.262550 59.609211,90.084435 60.148155,89.876801 
	C60.578320,89.483559 60.782169,89.212349 60.992531,88.970276 
	C60.999046,88.999405 60.940979,88.985527 61.162148,88.867088 
	C61.587185,88.487625 61.791058,88.226593 61.998108,87.985832 
	C62.001286,88.006096 61.964645,87.987640 62.312614,87.938316 
	C66.546837,85.511208 70.637451,83.303886 70.978691,77.964218 
	C71.004189,77.980728 70.943924,77.975616 71.171341,77.852341 
	C71.596672,77.451302 71.794586,77.173553 72.079254,76.691254 
	C72.342766,76.231224 72.581467,76.064331 73.232277,75.944717 
	C75.379761,73.916672 77.177071,71.929947 78.988716,69.968246 
	C79.003044,69.993271 78.948944,69.973328 79.335770,69.978226 
	C85.089928,70.021454 85.628242,65.057541 88.083313,61.768211 
	C88.345879,61.257610 88.599251,61.074009 89.152023,60.874702 
	C89.582138,60.490971 89.787193,60.225544 89.997589,59.982967 
	C90.002914,60.005817 89.958397,59.990963 90.178284,59.874844 
	C90.673615,59.556950 90.873962,59.297241 91.001053,58.991302 
	C91.002892,59.003002 90.981140,58.993786 91.327316,58.989632 
	C92.450356,58.319893 93.227211,57.654305 94.003662,56.997082 
	C94.003250,57.005447 93.986320,57.005562 94.199036,56.887001 
	C94.677574,56.568932 94.878876,56.317707 95.007820,56.007721 
	C95.000000,56.000679 95.014580,56.018379 95.375061,56.006081 
	C97.497353,54.673668 99.259178,53.353550 101.010284,52.016335 
	C100.999557,51.999241 101.033470,52.021225 101.366211,51.963295 
	C102.451546,50.913311 103.204124,49.921257 103.981949,48.956100 
	C104.007195,48.982998 103.941559,48.950233 104.291626,48.958267 
	C105.424538,48.298691 106.207382,47.631081 106.996307,46.983490 
	C107.002388,47.003506 106.964172,46.986477 107.336014,46.983227 
	C110.789581,44.633835 113.871300,42.287689 116.977676,39.968697 
	C117.002327,39.995850 116.947807,39.949043 117.305725,39.962883 
	C118.817596,39.030590 119.971535,38.084457 121.324142,37.114853 
	C121.522820,37.091381 121.911461,36.996258 122.272507,36.993507 
	C124.102837,36.080616 125.572121,35.170483 127.279327,34.185547 
	C127.517242,34.110744 128.004364,34.003456 128.366409,33.949287 
	C133.367310,31.754332 138.038864,29.679123 142.609467,27.401384 
	C143.287689,27.063396 143.489899,25.770193 143.923676,24.939188 
	C143.935013,24.959461 143.952011,24.916288 144.353577,24.946947 
	C146.814743,23.954489 148.874359,22.931374 150.970459,21.927349 
	C151.006943,21.946440 150.930481,21.927370 151.337006,21.952442 
	C154.818344,20.610331 157.893158,19.243143 161.172455,17.587509 
	C172.578156,13.899359 183.779388,10.499659 195.304260,7.323156 
	C201.086578,6.426596 206.545258,5.306839 212.400864,4.157158 
	C213.856461,4.062804 214.915131,3.998376 216.254425,4.192433 
	C224.192642,3.902731 231.853149,3.388942 239.501556,2.733647 
	C240.046539,2.686953 240.502594,1.602124 241.000000,1.000002 
M227.004807,284.997864 
	C227.004807,284.997864 227.037811,284.970520 227.262314,285.399628 
	C227.462112,285.667114 227.719894,285.855072 228.014206,286.001373 
	C228.014206,286.001373 228.048828,285.970123 228.028946,286.666779 
	C228.700378,287.436859 229.371811,288.206909 230.004288,289.004822 
	C230.004288,289.004822 230.015289,288.958282 230.252609,289.395844 
	C230.456757,289.669128 230.716843,289.869995 231.446609,290.233276 
	C231.703812,290.435608 231.884781,290.691803 232.115723,291.623657 
	C232.759811,292.070831 233.403900,292.518005 234.011658,293.005615 
	C234.011658,293.005615 234.026306,292.953827 234.240952,293.393707 
	C234.433990,293.668304 234.684799,293.871643 234.997620,294.006317 
	C234.997620,294.006317 234.985657,294.014008 235.107864,294.634033 
	C235.750122,295.084259 236.392380,295.534485 237.000488,296.005249 
	C237.000488,296.005249 237.008240,295.966187 237.247559,296.399841 
	C237.451691,296.671112 237.711365,296.869812 237.994598,297.003357 
	C237.994598,297.003357 238.004837,296.972168 238.230865,297.404602 
	C238.426971,297.674469 238.677292,297.877472 239.000610,298.001221 
	C239.000610,298.001221 238.983536,298.018372 239.112564,298.635773 
	C239.755875,299.083618 240.399170,299.531464 241.000366,300.002869 
	C241.000366,300.002869 241.013641,299.956543 241.237030,300.397308 
	C241.432785,300.673737 241.686172,300.879089 242.509338,301.261169 
	C243.006165,301.825592 243.503006,302.390015 244.238846,303.392731 
	C244.444641,303.666565 244.707367,303.865021 244.997620,304.001007 
	C244.997620,304.001007 245.012711,303.972473 245.225754,304.408264 
	C245.415588,304.681580 245.663254,304.884186 246.003784,305.004059 
	C246.003784,305.004059 245.978088,305.031952 246.141785,305.712311 
	C247.790878,306.452148 249.439972,307.192017 251.004517,307.966980 
	C251.004517,307.966980 251.063644,307.897095 251.153320,308.522186 
	C252.103302,308.691589 253.053284,308.860992 254.758530,309.092102 
	C255.511948,309.160858 256.265381,309.229614 257.312775,309.603607 
	C257.535919,309.788025 257.789795,309.906586 258.901428,309.993683 
	C262.332611,309.132019 266.085510,308.878204 269.122009,307.270905 
	C274.080566,304.646118 278.191925,301.432007 279.878326,295.008362 
	C281.146973,290.176056 285.813416,286.302765 288.632721,281.793365 
	C292.066498,276.301056 294.770813,270.324402 298.473175,265.034973 
	C304.014740,257.118011 310.194946,249.650421 316.019531,241.928391 
	C319.982605,236.674286 323.536530,231.088654 327.761688,226.061722 
	C331.862640,221.182602 336.610016,216.849548 341.031006,212.235977 
	C345.833374,207.224380 350.238861,201.766434 355.449097,197.228394 
	C362.025879,191.500153 369.099365,186.303864 376.236145,181.271774 
	C380.336731,178.380478 384.950775,176.201080 389.400635,173.826767 
	C392.864227,171.978699 397.048889,171.001709 399.837463,168.458267 
	C408.490662,160.565628 411.909729,149.595108 402.994934,138.643173 
	C400.260712,135.284149 395.728333,133.388809 391.779694,130.166397 
	C386.244385,127.314644 382.568359,127.771767 378.540009,131.903946 
	C378.540009,131.903946 378.113434,132.036224 377.314941,132.019379 
	C372.276184,134.320053 367.093231,136.359070 362.255646,139.024796 
	C359.582062,140.498062 357.487244,143.021606 355.119843,145.117401 
	C355.119843,145.117401 355.077515,145.138168 354.436523,145.179092 
	C353.970490,145.794495 353.504456,146.409897 353.005829,147.012680 
	C353.005829,147.012680 353.023193,147.043533 352.441406,147.087982 
	C351.981750,147.412582 351.522095,147.737198 351.014252,148.002502 
	C351.014252,148.002502 351.047791,148.069839 350.635162,148.298737 
	C350.383118,148.499435 350.195465,148.748627 350.075592,149.092712 
	C350.075592,149.092712 350.036591,149.118103 349.271362,149.057404 
	C346.551300,151.067429 343.831238,153.077469 341.038879,155.088989 
	C341.038879,155.088989 341.100708,155.126556 340.357544,155.086151 
	C334.541962,157.594223 329.081665,160.492828 326.787689,167.544830 
	C326.569672,167.776245 326.305023,167.924286 325.265564,167.998230 
	C324.353119,168.347534 323.179840,168.446320 322.567505,169.083862 
	C313.996826,178.007462 305.502686,187.004562 296.315155,196.163925 
	C295.572266,197.792404 294.829376,199.420883 294.039520,201.050064 
	C294.039520,201.050064 294.066284,201.088684 293.278900,201.050491 
	C290.255157,200.758911 289.909912,202.751312 289.532501,205.256729 
	C289.308167,205.445129 289.143555,205.676117 288.989777,205.989777 
	C288.989777,205.989777 288.950623,206.039368 288.572815,206.255707 
	C288.335022,206.439407 288.174622,206.675674 288.439697,207.672714 
	C288.614380,207.869385 288.789062,208.066040 288.723877,208.727142 
	C288.557251,208.778076 288.390625,208.829010 287.606323,208.477875 
	C286.290009,209.315918 284.570343,209.862656 283.721283,211.038177 
	C277.064667,220.254150 270.594818,229.604736 264.024475,238.883438 
	C261.143463,242.951981 258.162384,246.949646 255.700653,250.328934 
	C252.350525,248.269730 249.682297,246.629669 247.000000,245.000000 
	C247.000000,245.000000 247.010895,244.987350 246.995773,244.259262 
	C245.403931,242.021851 243.972198,239.644913 242.176819,237.584900 
	C240.245895,235.369385 238.027023,233.392365 235.839935,231.415100 
	C230.702438,226.770432 225.855423,221.705032 220.259964,217.688858 
	C211.036560,211.068726 201.284653,214.187317 194.739655,219.100677 
	C187.403183,224.608185 184.638870,236.460312 187.866089,244.750290 
	C188.369690,246.043961 189.969894,246.910751 191.619873,248.346237 
	C194.778015,252.100357 197.706680,256.080688 201.140152,259.563354 
	C209.297897,267.837952 217.694672,275.876862 226.235046,284.430084 
	C226.443192,284.690430 226.707138,284.867706 227.004807,284.997864 
M339.978516,245.986542 
	C339.978516,245.986542 340.066284,246.014069 339.520172,245.814560 
	C339.334808,245.871155 339.149445,245.927765 338.457977,246.644257 
	C338.308563,247.620255 338.028625,248.596252 338.028717,249.572235 
	C338.031647,276.198547 338.063202,302.824860 338.199585,329.712280 
	C338.199585,329.712280 338.046112,329.950256 337.447510,330.292847 
	C332.469543,335.787537 326.805725,338.297089 318.869812,338.215790 
	C274.904999,337.765198 230.933151,338.003845 186.963715,337.995850 
	C178.762009,337.994354 170.101669,339.469604 164.370682,331.205200 
	C164.310654,331.118622 164.051788,331.169922 163.853317,331.133331 
	C163.853317,331.133331 163.823654,331.106415 163.897568,330.203583 
	C163.924576,327.802399 163.951569,325.401184 163.990723,322.062714 
	C163.993607,274.643463 164.006500,227.224213 163.963577,179.805008 
	C163.961823,177.869858 163.434891,175.935196 163.005051,173.553452 
	C163.005051,173.553452 162.973251,173.083939 163.259949,172.438721 
	C165.064148,169.872757 164.183609,165.289795 169.267151,165.320419 
	C169.865738,164.935654 170.464310,164.550873 171.497681,164.061005 
	C171.497681,164.061005 171.936951,163.976456 172.883591,163.999481 
	C213.994461,164.000244 255.105362,164.013474 296.216156,163.962509 
	C298.140259,163.960129 300.063599,163.385345 302.257446,162.496399 
	C302.160309,162.306274 302.063202,162.116150 301.979828,161.993866 
	C301.979828,161.993866 301.910614,161.995819 302.490356,162.022858 
	C302.995728,161.739288 303.501099,161.455719 303.950378,160.421036 
	C304.098877,159.959900 304.103485,159.330231 304.417084,159.062485 
	C311.140259,153.322540 317.855560,147.571747 324.670837,141.942245 
	C327.247681,139.813736 330.070862,137.983475 333.331299,135.833664 
	C333.621277,135.360901 333.911255,134.888153 334.201233,134.415405 
	C333.772614,134.291290 333.343964,134.167175 332.972961,134.002777 
	C332.972961,134.002777 333.010712,134.062119 332.401611,133.486481 
	C331.096619,133.320465 329.791718,133.009827 328.486664,133.009308 
	C277.560516,132.989319 226.634338,132.988724 175.708237,133.043747 
	C174.126312,133.045456 172.545029,133.661789 170.255051,134.211685 
	C161.304779,137.422653 152.014755,139.706512 145.514542,147.756531 
	C139.682419,154.979141 134.201004,162.110550 133.523102,172.558228 
	C133.347565,174.029144 133.019470,175.499969 133.018600,176.970993 
	C132.988876,226.406326 132.981003,275.841675 133.029907,325.277008 
	C133.031464,326.850769 133.663147,328.423920 134.609741,330.487793 
	C135.716370,339.411713 138.935669,347.472778 144.932404,354.211060 
	C152.120636,362.288147 161.230957,366.832214 172.639282,368.558350 
	C173.948624,368.708374 175.257904,368.988922 176.567322,368.989532 
	C226.454666,369.013611 276.342010,369.020874 326.229340,368.973145 
	C327.812378,368.971649 329.394806,368.369507 331.427612,367.420746 
	C347.072571,365.112671 358.183868,356.614685 364.808411,342.407654 
	C366.457672,338.870605 366.979156,334.807709 368.542725,330.345306 
	C368.695953,329.536530 368.982574,328.727814 368.983215,327.918915 
	C369.011932,291.971039 369.029083,256.023132 368.969727,220.075348 
	C368.967468,218.708679 368.196747,217.343292 367.217346,216.293152 
	C362.873016,220.594666 358.418060,224.791290 354.214172,229.225967 
	C349.623688,234.068466 345.265717,239.131302 340.774902,244.654190 
	C340.499451,245.127304 340.223999,245.600403 339.978516,245.986542 
z"/>
<path fill="#000000" opacity="1.000000" stroke="none" 
	d="
M496.971313,205.027298 
	C496.984802,204.284866 496.998322,203.542450 496.955811,202.123840 
	C496.604004,200.938278 496.308228,200.428879 496.025818,199.616318 
	C495.991455,198.912689 495.943665,198.512253 495.918610,197.798080 
	C495.659180,196.966934 495.377014,196.449493 495.094849,195.932068 
	C491.921417,178.235794 485.586456,161.583710 478.131958,145.337143 
	C470.381714,128.445969 460.863098,112.449722 449.271271,98.040962 
	C437.362701,83.238472 424.197784,69.546188 409.302338,57.361012 
	C394.151428,44.966862 377.694061,35.035416 360.536133,26.062614 
	C353.635315,22.453815 346.129181,20.002499 338.408173,16.746151 
	C337.604065,16.375326 337.290375,16.282728 336.976654,16.190132 
	C336.546753,16.149300 336.116882,16.108469 335.211914,15.748190 
	C333.158539,14.957359 331.580292,14.485976 330.002014,14.014591 
	C330.002014,14.014590 329.518250,14.032561 329.104187,13.717343 
	C327.443665,13.028018 326.197235,12.653911 324.950775,12.279804 
	C324.950775,12.279805 324.535736,12.100861 324.137878,11.716317 
	C317.813507,9.921072 311.886993,8.510370 305.960510,7.099668 
	C305.239716,7.069411 304.518890,7.039156 303.307129,6.641874 
	C298.525635,5.607359 294.235107,4.939872 289.944611,4.272385 
	C288.586426,4.186202 287.228271,4.100019 285.222412,3.646787 
	C282.383148,2.519825 280.191589,1.759913 278.000000,1.000001 
	C352.259369,1.000000 426.518738,1.000000 501.000000,1.000000 
	C501.000000,73.020744 501.000000,145.041718 500.599030,217.576538 
	C499.808746,217.274612 499.245758,216.496277 499.060516,215.636520 
	C498.301453,212.113617 497.657593,208.565887 496.971313,205.027298 
z"/>
<path fill="#000000" opacity="1.000000" stroke="none" 
	d="
M72.882111,75.986046 
	C72.581467,76.064331 72.342766,76.231224 71.825539,76.783035 
	C71.304688,77.378113 71.124306,77.676865 70.943924,77.975616 
	C70.943924,77.975616 71.004189,77.980728 70.665131,78.091415 
	C67.538925,81.463951 64.751785,84.725792 61.964645,87.987640 
	C61.964645,87.987640 62.001286,88.006096 61.749058,88.066879 
	C61.311546,88.413612 61.126263,88.699570 60.940979,88.985527 
	C60.940979,88.985527 60.999046,88.999405 60.740417,89.058983 
	C60.295143,89.411987 60.108494,89.705421 59.921848,89.998848 
	C59.609211,90.084435 59.363701,90.262550 58.862137,90.837006 
	C58.438038,91.437729 58.337124,91.734642 58.236206,92.031563 
	C58.236202,92.031563 58.109776,92.490379 57.814045,92.817421 
	C57.346592,93.433533 57.174870,93.722603 57.003151,94.011681 
	C57.003151,94.011681 57.002136,94.001831 56.694687,94.149094 
	C53.133892,96.365852 50.835548,99.146416 49.932320,102.965729 
	C49.932320,102.965729 49.986870,102.999718 49.635139,102.996384 
	C48.933029,103.685905 48.582649,104.378769 48.232269,105.071632 
	C48.232269,105.071632 48.115536,105.515282 47.808094,105.823074 
	C47.320244,106.418976 47.139839,106.707085 46.959427,106.995193 
	C46.959427,106.995193 47.004845,107.001694 46.690254,107.127754 
	C45.558395,108.486916 44.741135,109.720009 43.923870,110.953110 
	C43.923870,110.953110 43.973846,110.997414 43.709869,111.024948 
	C43.272903,111.354889 43.099907,111.657303 42.926914,111.959709 
	C42.926914,111.959709 43.000744,111.957848 42.678421,112.072388 
	C42.208897,112.782173 42.061699,113.377426 41.914497,113.972679 
	C41.914501,113.972679 41.986435,113.955231 41.651508,114.048965 
	C40.855747,115.078964 40.394917,116.015228 39.934082,116.951492 
	C39.934078,116.951492 39.977581,117.003990 39.693611,117.036301 
	C39.314114,117.406502 39.218586,117.744392 39.123055,118.082283 
	C34.931599,125.412788 30.120127,132.466064 26.690125,140.137054 
	C21.178789,152.462784 16.376953,165.121506 11.690008,177.792908 
	C9.616597,183.398499 8.557451,189.379257 6.696875,195.816544 
	C6.331961,197.979523 6.308043,199.515640 6.284124,201.051773 
	C6.212480,201.455353 6.140835,201.858932 5.760901,202.665680 
	C5.352250,203.394211 5.251888,203.719559 5.151524,204.044922 
	C5.113087,204.758682 5.074653,205.472427 4.633263,206.765411 
	C3.909269,211.575287 3.588230,215.805923 3.267190,220.036575 
	C3.199157,220.769272 3.131126,221.501984 2.689257,222.691437 
	C1.876946,223.098801 1.438473,223.049393 1.000000,223.000000 
	C1.000000,149.073792 1.000000,75.147583 1.000000,1.000000 
	C73.020744,1.000000 145.041718,1.000000 217.665588,1.317495 
	C217.503586,2.401306 216.738678,3.167622 215.973785,3.933943 
	C214.915131,3.998376 213.856461,4.062804 211.967300,4.070343 
	C205.751404,5.042288 200.366013,6.071125 194.980621,7.099959 
	C183.779388,10.499659 172.578156,13.899359 160.788956,17.631300 
	C157.110825,19.284817 154.020645,20.606092 150.930481,21.927368 
	C150.930481,21.927370 151.006943,21.946440 150.605072,21.964392 
	C148.119476,22.960327 146.035736,23.938309 143.952011,24.916290 
	C143.952011,24.916288 143.935013,24.959461 143.559387,24.957846 
	C138.782928,26.951170 134.330750,28.844473 130.021744,31.021154 
	C129.085922,31.493879 128.663345,32.982658 128.004364,34.003456 
	C128.004364,34.003456 127.517242,34.110744 126.931801,34.129215 
	C124.868057,35.097210 123.389763,36.046734 121.911461,36.996258 
	C121.911461,36.996258 121.522820,37.091381 120.977859,37.013145 
	C119.271202,37.939617 118.109505,38.944328 116.947807,39.949043 
	C116.947807,39.949043 117.002327,39.995850 116.620651,40.019398 
	C113.147369,42.357452 110.055771,44.671963 106.964172,46.986473 
	C106.964172,46.986477 107.002388,47.003506 106.674393,47.018211 
	C105.544785,47.672028 104.743172,48.311131 103.941559,48.950233 
	C103.941559,48.950233 104.007195,48.982998 103.592300,48.937885 
	C102.462761,49.935589 101.748116,50.978409 101.033470,52.021225 
	C101.033470,52.021225 100.999557,51.999241 100.617432,52.022976 
	C97.006454,51.413837 95.859818,53.518013 95.014580,56.018379 
	C95.014580,56.018379 95.000000,56.000679 94.769722,56.092644 
	C94.355064,56.458260 94.170692,56.731911 93.986320,57.005562 
	C93.986320,57.005562 94.003250,57.005447 93.678558,57.022705 
	C92.562950,57.691238 91.772049,58.342510 90.981140,58.993786 
	C90.981140,58.993786 91.002892,59.003002 90.759842,59.079124 
	C90.330658,59.433819 90.144524,59.712387 89.958389,59.990959 
	C89.958397,59.990963 90.002914,60.005817 89.741669,60.059338 
	C89.295937,60.406242 89.111458,60.699623 88.926971,60.993004 
	C88.599251,61.074009 88.345879,61.257610 87.722038,61.806412 
	C84.501129,64.703789 81.725037,67.338554 78.948944,69.973328 
	C78.948944,69.973328 79.003044,69.993271 78.645699,70.023766 
	C76.486267,72.031517 74.684189,74.008781 72.882111,75.986046 
z"/>
<path fill="#000000" opacity="1.000000" stroke="none" 
	d="
M4.975436,295.050964 
	C5.020741,295.768463 5.066047,296.485992 5.039618,297.939026 
	C5.611903,300.477753 6.255922,302.280945 6.899944,304.084106 
	C6.967874,304.504028 7.035801,304.923950 7.038076,306.059387 
	C7.613720,309.215149 8.255017,311.655334 8.896315,314.095551 
	C12.620728,325.566589 15.662302,337.319977 20.257080,348.431091 
	C25.079103,360.091736 30.591454,371.630798 37.221561,382.344635 
	C49.825413,402.711700 64.902176,421.336090 82.976990,437.115753 
	C93.334496,446.157990 104.972794,453.738159 116.076881,461.919006 
	C130.698318,472.691223 147.472198,479.283112 163.979782,486.368469 
	C165.915878,487.199463 168.098511,487.456085 170.763702,488.326965 
	C184.256668,491.792114 197.166779,494.853241 210.037659,498.071381 
	C212.765320,498.753387 215.349640,500.008789 218.000000,501.000000 
	C145.738800,501.000000 73.477608,501.000000 1.000000,501.000000 
	C1.000000,427.312592 1.000000,353.624939 1.419332,279.458740 
	C2.224743,280.609253 2.674501,282.226318 2.983998,283.869843 
	C3.684550,287.589935 4.315928,291.323120 4.975436,295.050964 
z"/>
<path fill="#000000" opacity="1.000000" stroke="none" 
	d="
M279.468658,501.000000 
	C280.382019,500.322449 281.764038,499.644867 283.989624,498.990356 
	C291.912567,497.716095 298.991943,496.418701 306.071350,495.121338 
	C323.153839,492.132294 339.487000,486.556458 355.054535,479.187988 
	C376.238586,469.161163 396.488678,457.478058 413.571625,441.004883 
	C419.623627,435.168915 426.367859,430.035004 432.252960,424.046814 
	C436.935913,419.281921 440.785309,413.699127 445.018311,408.490417 
	C448.819855,403.812561 452.940521,399.359314 456.376801,394.428131 
	C460.814209,388.060333 464.874878,381.411346 468.787750,374.702637 
	C471.807739,369.524780 474.637695,364.194366 477.041534,358.708069 
	C481.223419,349.163727 485.011261,339.446747 489.305969,329.189941 
	C490.737152,324.647430 492.000549,320.755585 492.879822,316.778809 
	C494.706909,308.515259 496.222137,300.181976 498.104858,291.931976 
	C498.653839,289.526367 500.012482,287.305542 501.000000,285.000000 
	C501.000000,356.928040 501.000000,428.856049 501.000000,501.000000 
	C427.312592,501.000000 353.624939,501.000000 279.468658,501.000000 
z"/>
<path fill="#700D6A" opacity="1.000000" stroke="none" 
	d="
M218.468628,501.000000 
	C215.349640,500.008789 212.765320,498.753387 210.037659,498.071381 
	C197.166779,494.853241 184.256668,491.792114 171.153564,488.375549 
	C172.147766,487.979889 173.409073,487.596588 174.540527,487.833466 
	C182.472824,489.494080 190.365280,491.344818 198.296005,493.013306 
	C206.501648,494.739716 214.708878,496.486908 222.969376,497.912323 
	C227.153152,498.634308 231.464218,498.589783 235.700699,499.049072 
	C237.406296,499.234009 239.066208,499.840210 240.873459,500.627319 
	C233.645752,501.000000 226.291504,501.000000 218.468628,501.000000 
z"/>
<path fill="#6E106B" opacity="1.000000" stroke="none" 
	d="
M501.000000,284.532410 
	C500.012482,287.305542 498.653839,289.526367 498.104858,291.931976 
	C496.222137,300.181976 494.706909,308.515259 492.879822,316.778809 
	C492.000549,320.755585 490.737152,324.647430 489.345001,328.802399 
	C489.584015,324.609192 489.873016,320.142609 490.714386,315.782593 
	C493.309784,302.333527 496.127075,288.927399 498.830322,275.498932 
	C499.323639,273.048492 496.107910,269.872498 500.639343,268.070099 
	C501.000000,273.354919 501.000000,278.709869 501.000000,284.532410 
z"/>
<path fill="#71106F" opacity="1.000000" stroke="none" 
	d="
M5.227393,294.741699 
	C4.315928,291.323120 3.684550,287.589935 2.983998,283.869843 
	C2.674501,282.226318 2.224743,280.609253 1.419332,278.990082 
	C1.000000,273.311951 1.000000,267.623932 1.000001,261.467957 
	C1.747074,262.717590 2.941409,264.379059 3.165294,266.162323 
	C4.246172,274.771698 5.084697,283.411926 5.945851,292.047577 
	C6.022814,292.819336 5.645621,293.636383 5.227393,294.741699 
z"/>
<path fill="#6D0B6A" opacity="1.000000" stroke="none" 
	d="
M496.805511,205.384674 
	C497.657593,208.565887 498.301453,212.113617 499.060516,215.636520 
	C499.245758,216.496277 499.808746,217.274612 500.599030,218.045197 
	C501.000000,225.020950 501.000000,232.041901 501.000000,239.531433 
	C500.350830,239.173096 499.232269,238.402740 499.124817,237.510590 
	C498.006256,228.221588 497.012878,218.916702 496.093323,209.605499 
	C495.969147,208.347946 496.442902,207.031342 496.805511,205.384674 
z"/>
<path fill="#700F6B" opacity="1.000000" stroke="none" 
	d="
M216.254425,4.192429 
	C216.738678,3.167622 217.503586,2.401306 218.134247,1.317495 
	C225.354248,1.000000 232.708496,1.000000 240.531372,1.000002 
	C240.502594,1.602124 240.046539,2.686953 239.501556,2.733647 
	C231.853149,3.388942 224.192642,3.902731 216.254425,4.192429 
z"/>
<path fill="#730D6D" opacity="1.000000" stroke="none" 
	d="
M277.531464,1.000001 
	C280.191589,1.759913 282.383148,2.519825 284.817444,3.590853 
	C282.870422,3.935570 280.675507,4.081141 278.491852,3.981369 
	C272.418060,3.703855 266.345367,3.373766 260.281372,2.937432 
	C259.252106,2.863370 258.268127,2.160087 257.131592,1.373753 
	C263.687653,1.000000 270.375275,1.000000 277.531464,1.000001 
z"/>
<path fill="#73116F" opacity="1.000000" stroke="none" 
	d="
M1.000000,223.467941 
	C1.438473,223.049393 1.876946,223.098801 2.661645,223.059021 
	C2.584486,228.894760 2.161100,234.819702 1.368857,240.872314 
	C1.000000,235.311966 1.000000,229.623917 1.000000,223.467941 
z"/>
<path fill="#000000" opacity="1.000000" stroke="none" 
	d="
M340.806396,244.098114 
	C345.265717,239.131302 349.623688,234.068466 354.214172,229.225967 
	C358.418060,224.791290 362.873016,220.594666 367.582703,216.601959 
	C367.971680,254.936035 367.995361,292.961304 368.018982,330.986542 
	C366.979156,334.807709 366.457672,338.870605 364.808411,342.407654 
	C358.183868,356.614685 347.072571,365.112671 330.736694,367.720795 
	C277.359955,368.027557 224.674149,368.034302 171.988327,368.041046 
	C161.230957,366.832214 152.120636,362.288147 144.932404,354.211060 
	C138.935669,347.472778 135.716370,339.411713 134.310226,329.774231 
	C134.034073,276.680939 134.057434,224.301163 134.080795,171.921402 
	C134.201004,162.110550 139.682419,154.979141 145.514542,147.756531 
	C152.014755,139.706512 161.304779,137.422653 170.849213,134.380234 
	C172.747559,134.364822 174.051727,134.020218 175.355927,134.020081 
	C227.907516,134.014664 280.459106,134.040375 333.010712,134.062119 
	C333.010712,134.062119 332.972961,134.002777 332.937744,134.352921 
	C332.862305,135.141129 332.822052,135.579208 332.781769,136.017273 
	C330.070862,137.983475 327.247681,139.813736 324.670837,141.942245 
	C317.855560,147.571747 311.140259,153.322540 304.417084,159.062485 
	C304.103485,159.330231 304.098877,159.959900 303.671844,160.808807 
	C302.899078,161.462997 302.404846,161.729401 301.910614,161.995819 
	C301.910614,161.995819 301.979828,161.993866 301.507446,161.985260 
	C259.688599,161.984512 218.342072,161.980927 176.995636,162.043320 
	C175.387909,162.045746 173.781143,162.680908 172.108490,163.258514 
	C172.043076,163.495773 171.936951,163.976456 171.936951,163.976456 
	C171.936951,163.976456 171.497681,164.061005 170.968460,164.050873 
	C169.929321,164.333435 169.419403,164.626114 168.909485,164.918793 
	C164.183609,165.289795 165.064148,169.872757 162.713638,172.924408 
	C162.115204,173.738480 162.017471,174.066849 162.017395,174.395264 
	C162.007629,225.181656 161.997803,275.968048 162.045090,326.754425 
	C162.046204,327.953003 162.690964,329.151001 163.060944,330.559937 
	C163.263611,331.032959 163.509384,331.144928 163.823654,331.106415 
	C163.823654,331.106415 163.853317,331.133331 163.880325,331.508240 
	C165.106232,336.006592 167.997574,338.207916 172.260773,339.454803 
	C173.114624,339.889557 173.776459,339.981781 174.438324,339.981934 
	C225.131363,339.992065 275.824402,340.001343 326.517426,339.957703 
	C327.666412,339.956726 328.814911,339.349335 330.326508,338.999847 
	C333.402710,336.274628 336.116058,333.574371 339.068329,330.517914 
	C339.538513,328.593964 339.967834,327.026672 339.971558,325.458435 
	C340.034546,298.977051 340.044556,272.495544 340.066284,246.014069 
	C340.066284,246.014069 339.978516,245.986542 340.196411,245.861176 
	C340.545013,245.189896 340.675720,244.644012 340.806396,244.098114 
z"/>
<path fill="#000000" opacity="1.000000" stroke="none" 
	d="
M325.993744,167.988953 
	C326.305023,167.924286 326.569672,167.776245 327.285706,167.343597 
	C331.742371,164.107178 335.748901,161.130981 339.618652,157.986481 
	C340.382751,157.365555 340.620300,156.096634 341.100708,155.126556 
	C341.100708,155.126556 341.038879,155.088989 341.425049,155.049896 
	C344.553009,153.046570 347.294800,151.082336 350.036591,149.118103 
	C350.036591,149.118103 350.075592,149.092712 350.335815,149.030304 
	C350.746643,148.668549 350.897217,148.369202 351.047791,148.069839 
	C351.047791,148.069839 351.014252,148.002502 351.355042,148.046463 
	C352.138275,147.741470 352.580750,147.392502 353.023193,147.043533 
	C353.023193,147.043533 353.005829,147.012680 353.374390,147.011917 
	C354.187836,146.386826 354.632660,145.762497 355.077515,145.138168 
	C355.077515,145.138168 355.119843,145.117401 355.484497,145.089432 
	C363.270599,140.719711 370.692017,136.377960 378.113434,132.036224 
	C378.113434,132.036224 378.540009,131.903946 379.138275,131.897186 
	C383.830841,131.534668 387.925110,131.178940 392.019409,130.823212 
	C395.728333,133.388809 400.260712,135.284149 402.994934,138.643173 
	C411.909729,149.595108 408.490662,160.565628 399.837463,168.458267 
	C397.048889,171.001709 392.864227,171.978699 389.400635,173.826767 
	C384.950775,176.201080 380.336731,178.380478 376.236145,181.271774 
	C369.099365,186.303864 362.025879,191.500153 355.449097,197.228394 
	C350.238861,201.766434 345.833374,207.224380 341.031006,212.235977 
	C336.610016,216.849548 331.862640,221.182602 327.761688,226.061722 
	C323.536530,231.088654 319.982605,236.674286 316.019531,241.928391 
	C310.194946,249.650421 304.014740,257.118011 298.473175,265.034973 
	C294.770813,270.324402 292.066498,276.301056 288.632721,281.793365 
	C285.813416,286.302765 281.146973,290.176056 279.878326,295.008362 
	C278.191925,301.432007 274.080566,304.646118 269.122009,307.270905 
	C266.085510,308.878204 262.332611,309.132019 258.374268,309.775146 
	C257.634399,309.267090 257.358307,309.181000 257.018799,309.298370 
	C256.265381,309.229614 255.511948,309.160858 254.203156,308.778076 
	C252.786407,308.275055 251.925018,308.086090 251.063644,307.897095 
	C251.063644,307.897095 251.004517,307.966980 250.919647,307.626129 
	C249.215881,306.534180 247.596985,305.783081 245.978088,305.031952 
	C245.978088,305.031952 246.003784,305.004059 245.917389,304.766235 
	C245.558243,304.343109 245.285477,304.157806 245.012711,303.972473 
	C245.012711,303.972473 244.997620,304.001007 244.930542,303.746735 
	C244.575577,303.313141 244.287704,303.133789 243.999847,302.954437 
	C243.503006,302.390015 243.006165,301.825592 242.177933,300.890991 
	C241.568893,300.332703 241.291260,300.144623 241.013641,299.956543 
	C241.013641,299.956543 241.000366,300.002869 240.983902,299.658325 
	C240.306137,298.881958 239.644836,298.450165 238.983536,298.018372 
	C238.983536,298.018372 239.000610,298.001221 238.914505,297.765076 
	C238.553879,297.343353 238.279358,297.157745 238.004837,296.972168 
	C238.004837,296.972168 237.994598,297.003357 237.930328,296.752563 
	C237.580124,296.323242 237.294189,296.144714 237.008240,295.966187 
	C237.008240,295.966187 237.000488,296.005249 236.959854,295.673248 
	C236.274704,294.898834 235.630173,294.456421 234.985657,294.014008 
	C234.985657,294.014008 234.997620,294.006317 234.925842,293.759033 
	C234.578140,293.325745 234.302216,293.139801 234.026306,292.953827 
	C234.026306,292.953827 234.011658,293.005615 234.001007,292.648254 
	C233.323410,291.861237 232.656448,291.431549 231.989502,291.001892 
	C231.884781,290.691803 231.703812,290.435608 231.162033,289.866089 
	C230.590073,289.318665 230.302689,289.138458 230.015289,288.958282 
	C230.015289,288.958282 230.004288,289.004822 229.994110,288.666870 
	C229.338898,287.542633 228.693863,286.756378 228.048828,285.970123 
	C228.048828,285.970123 228.014206,286.001373 227.956543,285.734375 
	C227.611847,285.301758 227.324829,285.136139 227.037811,284.970520 
	C227.037811,284.970520 227.004807,284.997864 226.930725,284.740906 
	C226.569366,284.326324 226.282104,284.168671 225.994858,284.011017 
	C217.694672,275.876862 209.297897,267.837952 201.140152,259.563354 
	C197.706680,256.080688 194.778015,252.100357 191.320724,247.761566 
	C188.547943,240.629761 187.787582,234.114380 190.974274,227.515778 
	C194.736404,219.725647 204.557388,215.237061 212.843857,217.062088 
	C221.938980,219.065186 226.714478,226.429886 232.874954,232.134598 
	C237.547501,236.461456 242.296112,240.706116 247.010895,244.987350 
	C247.010895,244.987350 247.000000,245.000000 246.990479,245.363480 
	C249.766800,248.797241 252.552673,251.867523 255.415543,255.022690 
	C266.407532,239.563263 277.315765,224.221603 288.223999,208.879944 
	C288.390625,208.829010 288.557251,208.778076 289.110657,208.419281 
	C291.020386,205.770493 292.543335,203.429596 294.066284,201.088684 
	C294.066284,201.088684 294.039520,201.050064 294.356934,200.951523 
	C295.489655,199.931488 296.304962,199.009995 297.414093,197.922211 
	C298.296600,197.179214 298.919434,196.633179 299.468658,196.021088 
	C305.124878,189.717041 310.684296,183.323364 316.451782,177.123047 
	C319.445587,173.904556 322.801422,171.022812 325.993744,167.988953 
z"/>
<path fill="#730D6D" opacity="1.000000" stroke="none" 
	d="
M247.003326,244.623306 
	C242.296112,240.706116 237.547501,236.461456 232.874954,232.134598 
	C226.714478,226.429886 221.938980,219.065186 212.843857,217.062088 
	C204.557388,215.237061 194.736404,219.725647 190.974274,227.515778 
	C187.787582,234.114380 188.547943,240.629761 191.042297,247.575897 
	C189.969894,246.910751 188.369690,246.043961 187.866089,244.750290 
	C184.638870,236.460312 187.403183,224.608185 194.739655,219.100677 
	C201.284653,214.187317 211.036560,211.068726 220.259964,217.688858 
	C225.855423,221.705032 230.702438,226.770432 235.839935,231.415100 
	C238.027023,233.392365 240.245895,235.369385 242.176819,237.584900 
	C243.972198,239.644913 245.403931,242.021851 247.003326,244.623306 
z"/>
<path fill="#6E0D6C" opacity="1.000000" stroke="none" 
	d="
M338.829407,330.874146 
	C336.116058,333.574371 333.402710,336.274628 329.859985,338.990356 
	C276.709961,339.026978 224.389359,339.048157 172.068756,339.069305 
	C167.997574,338.207916 165.106232,336.006592 163.896545,331.519958 
	C164.051788,331.169922 164.310654,331.118622 164.370682,331.205200 
	C170.101669,339.469604 178.762009,337.994354 186.963715,337.995850 
	C230.933151,338.003845 274.904999,337.765198 318.869812,338.215790 
	C326.805725,338.297089 332.469543,335.787537 337.844727,330.308197 
	C338.329041,330.623077 338.524872,330.806610 338.829407,330.874146 
z"/>
<path fill="#813B7F" opacity="1.000000" stroke="none" 
	d="
M332.706177,133.774292 
	C280.459106,134.040375 227.907516,134.014664 175.355927,134.020081 
	C174.051727,134.020218 172.747559,134.364822 171.203415,134.270187 
	C172.545029,133.661789 174.126312,133.045456 175.708237,133.043747 
	C226.634338,132.988724 277.560516,132.989319 328.486664,133.009308 
	C329.791718,133.009827 331.096619,133.320465 332.706177,133.774292 
z"/>
<path fill="#813B81" opacity="1.000000" stroke="none" 
	d="
M172.313812,368.299683 
	C224.674149,368.034302 277.359955,368.027557 330.511658,368.034119 
	C329.394806,368.369507 327.812378,368.971649 326.229340,368.973145 
	C276.342010,369.020874 226.454666,369.013611 176.567322,368.989532 
	C175.257904,368.988922 173.948624,368.708374 172.313812,368.299683 
z"/>
<path fill="#813C80" opacity="1.000000" stroke="none" 
	d="
M133.801941,172.239807 
	C134.057434,224.301163 134.034073,276.680939 134.005890,329.529022 
	C133.663147,328.423920 133.031464,326.850769 133.029907,325.277008 
	C132.981003,275.841675 132.988876,226.406326 133.018600,176.970993 
	C133.019470,175.499969 133.347565,174.029144 133.801941,172.239807 
z"/>
<path fill="#E0B2DC" opacity="1.000000" stroke="none" 
	d="
M163.035507,330.349274 
	C162.690964,329.151001 162.046204,327.953003 162.045090,326.754425 
	C161.997803,275.968048 162.007629,225.181656 162.017395,174.395264 
	C162.017471,174.066849 162.115204,173.738480 162.570282,173.247009 
	C162.973251,173.083939 163.005051,173.553452 163.018341,174.243988 
	C163.020905,200.527267 162.984360,226.120026 163.006989,251.712753 
	C163.028000,275.474335 163.112152,299.235840 163.100540,323.452179 
	C163.033554,326.054413 163.034531,328.201843 163.035507,330.349274 
z"/>
<path fill="#730D6D" opacity="1.000000" stroke="none" 
	d="
M287.915161,208.678909 
	C277.315765,224.221603 266.407532,239.563263 255.415543,255.022690 
	C252.552673,251.867523 249.766800,248.797241 246.997498,245.358276 
	C249.682297,246.629669 252.350525,248.269730 255.700653,250.328934 
	C258.162384,246.949646 261.143463,242.951981 264.024475,238.883438 
	C270.594818,229.604736 277.064667,220.254150 283.721283,211.038177 
	C284.570343,209.862656 286.290009,209.315918 287.915161,208.678909 
z"/>
<path fill="#6E0A6A" opacity="1.000000" stroke="none" 
	d="
M163.168503,322.997375 
	C163.112152,299.235840 163.028000,275.474335 163.006989,251.712753 
	C162.984360,226.120026 163.020905,200.527267 163.092133,174.467407 
	C163.434891,175.935196 163.961823,177.869858 163.963577,179.805008 
	C164.006500,227.224213 163.993607,274.643463 163.782257,322.530823 
	C163.573792,322.998962 163.168503,322.997375 163.168503,322.997375 
z"/>
<path fill="#6D0B6A" opacity="1.000000" stroke="none" 
	d="
M172.410278,163.987976 
	C171.936951,163.976456 172.043076,163.495773 172.562866,163.251678 
	C216.050888,163.030777 259.019104,163.053970 301.987305,163.077148 
	C300.063599,163.385345 298.140259,163.960129 296.216156,163.962509 
	C255.105362,164.013474 213.994461,164.000244 172.410278,163.987976 
z"/>
<path fill="#DEB0DC" opacity="1.000000" stroke="none" 
	d="
M302.122375,162.786774 
	C259.019104,163.053970 216.050888,163.030777 172.628296,163.014420 
	C173.781143,162.680908 175.387909,162.045746 176.995636,162.043320 
	C218.342072,161.980927 259.688599,161.984512 301.500580,161.951340 
	C302.063202,162.116150 302.160309,162.306274 302.122375,162.786774 
z"/>
<path fill="#7F3A7D" opacity="1.000000" stroke="none" 
	d="
M368.280884,330.665924 
	C367.995361,292.961304 367.971680,254.936035 367.866058,216.444046 
	C368.196747,217.343292 368.967468,218.708679 368.969727,220.075348 
	C369.029083,256.023132 369.011932,291.971039 368.983215,327.918915 
	C368.982574,328.727814 368.695953,329.536530 368.280884,330.665924 
z"/>
<path fill="#6E106B" opacity="1.000000" stroke="none" 
	d="
M325.629639,167.993591 
	C322.801422,171.022812 319.445587,173.904556 316.451782,177.123047 
	C310.684296,183.323364 305.124878,189.717041 299.468658,196.021088 
	C298.919434,196.633179 298.296600,197.179214 297.244690,197.762787 
	C296.850983,197.174393 296.920471,196.579102 296.989960,195.983795 
	C305.502686,187.004562 313.996826,178.007462 322.567505,169.083862 
	C323.179840,168.446320 324.353119,168.347534 325.629639,167.993591 
z"/>
<path fill="#DBB1DF" opacity="1.000000" stroke="none" 
	d="
M339.068329,330.517914 
	C338.524872,330.806610 338.329041,330.623077 338.144012,330.136902 
	C338.046112,329.950256 338.199585,329.712280 338.459534,329.249847 
	C338.812103,327.799622 338.985504,326.811829 338.985657,325.824036 
	C338.989319,299.210815 338.975220,272.597595 338.964111,245.984375 
	C339.149445,245.927765 339.334808,245.871155 339.793213,245.914307 
	C340.044556,272.495544 340.034546,298.977051 339.971558,325.458435 
	C339.967834,327.026672 339.538513,328.593964 339.068329,330.517914 
z"/>
<path fill="#6C0A6B" opacity="1.000000" stroke="none" 
	d="
M338.711060,246.314316 
	C338.975220,272.597595 338.989319,299.210815 338.985657,325.824036 
	C338.985504,326.811829 338.812103,327.799622 338.404694,329.119293 
	C338.063202,302.824860 338.031647,276.198547 338.028717,249.572235 
	C338.028625,248.596252 338.308563,247.620255 338.711060,246.314316 
z"/>
<path fill="#6E106B" opacity="1.000000" stroke="none" 
	d="
M377.714172,132.027802 
	C370.692017,136.377960 363.270599,140.719711 355.490356,145.066589 
	C357.487244,143.021606 359.582062,140.498062 362.255646,139.024796 
	C367.093231,136.359070 372.276184,134.320053 377.714172,132.027802 
z"/>
<path fill="#6E106B" opacity="1.000000" stroke="none" 
	d="
M305.782959,494.854980 
	C298.991943,496.418701 291.912567,497.716095 284.394958,498.953491 
	C284.098938,498.595367 284.202118,498.063995 284.389008,498.032745 
	C291.419403,496.856079 298.457520,495.725433 305.782959,494.854980 
z"/>
<path fill="#6E106B" opacity="1.000000" stroke="none" 
	d="
M340.729126,155.106354 
	C340.620300,156.096634 340.382751,157.365555 339.618652,157.986481 
	C335.748901,161.130981 331.742371,164.107178 327.424683,167.160004 
	C329.081665,160.492828 334.541962,157.594223 340.729126,155.106354 
z"/>
<path fill="#771972" opacity="1.000000" stroke="none" 
	d="
M128.366409,33.949291 
	C128.663345,32.982658 129.085922,31.493879 130.021744,31.021154 
	C134.330750,28.844473 138.782928,26.951170 143.548035,24.937572 
	C143.489899,25.770193 143.287689,27.063396 142.609467,27.401384 
	C138.038864,29.679123 133.367310,31.754332 128.366409,33.949291 
z"/>
<path fill="#700F6B" opacity="1.000000" stroke="none" 
	d="
M195.304260,7.323157 
	C200.366013,6.071125 205.751404,5.042288 211.570358,4.100267 
	C206.545258,5.306839 201.086578,6.426596 195.304260,7.323157 
z"/>
<path fill="#730D6D" opacity="1.000000" stroke="none" 
	d="
M306.173157,7.384318 
	C311.886993,8.510370 317.813507,9.921072 323.923096,11.645994 
	C318.199432,10.529799 312.292603,9.099383 306.173157,7.384318 
z"/>
<path fill="#771972" opacity="1.000000" stroke="none" 
	d="
M62.312614,87.938316 
	C64.751785,84.725792 67.538925,81.463951 70.639633,78.074913 
	C70.637451,83.303886 66.546837,85.511208 62.312614,87.938316 
z"/>
<path fill="#73116F" opacity="1.000000" stroke="none" 
	d="
M3.599679,219.887878 
	C3.588230,215.805923 3.909269,211.575287 4.569738,207.117188 
	C4.583502,211.172882 4.257834,215.456024 3.599679,219.887878 
z"/>
<path fill="#730D6D" opacity="1.000000" stroke="none" 
	d="
M290.093506,4.600662 
	C294.235107,4.939872 298.525635,5.607359 302.952148,6.577231 
	C298.806244,6.229391 294.524323,5.579165 290.093506,4.600662 
z"/>
<path fill="#771972" opacity="1.000000" stroke="none" 
	d="
M79.335770,69.978226 
	C81.725037,67.338554 84.501129,64.703789 87.638504,62.030815 
	C85.628242,65.057541 85.089928,70.021454 79.335770,69.978226 
z"/>
<path fill="#771972" opacity="1.000000" stroke="none" 
	d="
M50.307220,102.962212 
	C50.835548,99.146416 53.133892,96.365852 56.699661,94.148804 
	C55.841812,97.651146 54.960419,101.505165 50.307220,102.962212 
z"/>
<path fill="#771972" opacity="1.000000" stroke="none" 
	d="
M107.336014,46.983223 
	C110.055771,44.671963 113.147369,42.357452 116.595993,39.992245 
	C113.871300,42.287689 110.789581,44.633835 107.336014,46.983223 
z"/>
<path fill="#6E106B" opacity="1.000000" stroke="none" 
	d="
M391.899536,130.494797 
	C387.925110,131.178940 383.830841,131.534668 379.349731,131.825302 
	C382.568359,127.771767 386.244385,127.314644 391.899536,130.494797 
z"/>
<path fill="#6E106B" opacity="1.000000" stroke="none" 
	d="
M349.653992,149.087738 
	C347.294800,151.082336 344.553009,153.046570 341.461182,155.049164 
	C343.831238,153.077469 346.551300,151.067429 349.653992,149.087738 
z"/>
<path fill="#730D6D" opacity="1.000000" stroke="none" 
	d="
M293.672607,201.069595 
	C292.543335,203.429596 291.020386,205.770493 289.230591,208.187057 
	C288.789062,208.066040 288.614380,207.869385 288.441467,207.198380 
	C288.665436,206.535172 288.834564,206.306946 288.950623,206.039368 
	C288.950623,206.039368 288.989777,205.989777 289.198608,205.857758 
	C289.640045,205.540405 289.801483,205.306046 289.891785,205.022659 
	C289.909912,202.751312 290.255157,200.758911 293.672607,201.069595 
z"/>
<path fill="#771972" opacity="1.000000" stroke="none" 
	d="
M151.337006,21.952442 
	C154.020645,20.606092 157.110825,19.284817 160.584488,17.919750 
	C157.893158,19.243143 154.818344,20.610331 151.337006,21.952442 
z"/>
<path fill="#771972" opacity="1.000000" stroke="none" 
	d="
M73.232269,75.944717 
	C74.684189,74.008781 76.486267,72.031517 78.631371,69.998749 
	C77.177071,71.929947 75.379761,73.916672 73.232269,75.944717 
z"/>
<path fill="#771972" opacity="1.000000" stroke="none" 
	d="
M95.375061,56.006081 
	C95.859818,53.518013 97.006454,51.413837 100.628159,52.040070 
	C99.259178,53.353550 97.497353,54.673668 95.375061,56.006081 
z"/>
<path fill="#71106F" opacity="1.000000" stroke="none" 
	d="
M9.135281,313.839600 
	C8.255017,311.655334 7.613720,309.215149 7.068705,306.377747 
	C7.901406,308.514954 8.637826,311.049316 9.135281,313.839600 
z"/>
<path fill="#771972" opacity="1.000000" stroke="none" 
	d="
M144.353577,24.946949 
	C146.035736,23.938309 148.119476,22.960327 150.568588,21.945301 
	C148.874359,22.931374 146.814743,23.954489 144.353577,24.946949 
z"/>
<path fill="#6D0B6A" opacity="1.000000" stroke="none" 
	d="
M494.836548,196.210464 
	C495.377014,196.449493 495.659180,196.966934 495.737610,197.945007 
	C495.693390,198.910278 495.852905,199.414886 496.012390,199.919495 
	C496.308228,200.428879 496.604004,200.938278 496.889771,201.757904 
	C492.860199,201.549957 493.922089,198.935730 494.836548,196.210464 
z"/>
<path fill="#71106F" opacity="1.000000" stroke="none" 
	d="
M7.136947,303.838806 
	C6.255922,302.280945 5.611903,300.477753 5.053034,298.298462 
	C5.883440,299.812683 6.628696,301.703094 7.136947,303.838806 
z"/>
<path fill="#73116F" opacity="1.000000" stroke="none" 
	d="
M6.593752,200.924011 
	C6.308043,199.515640 6.331961,197.979523 6.670115,196.218323 
	C6.957362,197.594254 6.930371,199.195251 6.593752,200.924011 
z"/>
<path fill="#730D6D" opacity="1.000000" stroke="none" 
	d="
M296.652588,196.073868 
	C296.920471,196.579102 296.850983,197.174393 296.950867,197.929077 
	C296.304962,199.009995 295.489655,199.931488 294.380432,200.951172 
	C294.829376,199.420883 295.572266,197.792404 296.652588,196.073868 
z"/>
<path fill="#6F146F" opacity="1.000000" stroke="none" 
	d="
M246.059937,305.372131 
	C247.596985,305.783081 249.215881,306.534180 250.961914,307.608582 
	C249.439972,307.192017 247.790878,306.452148 246.059937,305.372131 
z"/>
<path fill="#771972" opacity="1.000000" stroke="none" 
	d="
M122.272507,36.993507 
	C123.389763,36.046734 124.868057,35.097210 126.693878,34.204018 
	C125.572121,35.170483 124.102837,36.080616 122.272507,36.993507 
z"/>
<path fill="#730D6D" opacity="1.000000" stroke="none" 
	d="
M330.105713,14.366499 
	C331.580292,14.485976 333.158539,14.957359 334.890381,15.708889 
	C333.432465,15.565493 331.820923,15.141950 330.105713,14.366499 
z"/>
<path fill="#771972" opacity="1.000000" stroke="none" 
	d="
M117.305725,39.962879 
	C118.109505,38.944328 119.271202,37.939617 120.779190,37.036613 
	C119.971535,38.084457 118.817596,39.030590 117.305725,39.962879 
z"/>
<path fill="#771972" opacity="1.000000" stroke="none" 
	d="
M101.366211,51.963295 
	C101.748116,50.978409 102.462761,49.935589 103.567047,48.910988 
	C103.204124,49.921257 102.451546,50.913311 101.366211,51.963295 
z"/>
<path fill="#771972" opacity="1.000000" stroke="none" 
	d="
M44.280037,110.912003 
	C44.741135,109.720009 45.558395,108.486916 46.679504,107.107491 
	C46.200966,108.264412 45.418587,109.567650 44.280037,110.912003 
z"/>
<path fill="#6E0D6C" opacity="1.000000" stroke="none" 
	d="
M163.100540,323.452179 
	C163.168503,322.997375 163.573792,322.998962 163.776184,322.999481 
	C163.951569,325.401184 163.924576,327.802399 163.860611,330.654999 
	C163.509384,331.144928 163.263611,331.032959 163.060944,330.559937 
	C163.034531,328.201843 163.033554,326.054413 163.100540,323.452179 
z"/>
<path fill="#730D6D" opacity="1.000000" stroke="none" 
	d="
M325.081238,12.594855 
	C326.197235,12.653911 327.443665,13.028018 328.863190,13.694883 
	C327.761383,13.628397 326.486542,13.269152 325.081238,12.594855 
z"/>
<path fill="#6F146F" opacity="1.000000" stroke="none" 
	d="
M251.108490,308.209656 
	C251.925018,308.086090 252.786407,308.275055 253.825531,308.747192 
	C253.053284,308.860992 252.103302,308.691589 251.108490,308.209656 
z"/>
<path fill="#771972" opacity="1.000000" stroke="none" 
	d="
M104.291626,48.958267 
	C104.743172,48.311131 105.544785,47.672028 106.668312,46.998196 
	C106.207382,47.631081 105.424538,48.298691 104.291626,48.958267 
z"/>
<path fill="#771972" opacity="1.000000" stroke="none" 
	d="
M91.327316,58.989632 
	C91.772049,58.342510 92.562950,57.691238 93.678963,57.014343 
	C93.227211,57.654305 92.450356,58.319893 91.327316,58.989632 
z"/>
<path fill="#6E106B" opacity="1.000000" stroke="none" 
	d="
M228.038879,286.318451 
	C228.693863,286.756378 229.338898,287.542633 230.013580,288.652924 
	C229.371811,288.206909 228.700378,287.436859 228.038879,286.318451 
z"/>
<path fill="#771972" opacity="1.000000" stroke="none" 
	d="
M40.274139,116.887527 
	C40.394917,116.015228 40.855747,115.078964 41.618690,114.031845 
	C41.485268,114.888519 41.049728,115.856041 40.274139,116.887527 
z"/>
<path fill="#771972" opacity="1.000000" stroke="none" 
	d="
M48.517784,104.975708 
	C48.582649,104.378769 48.933029,103.685905 49.627884,102.965073 
	C49.582672,103.584671 49.192989,104.232224 48.517784,104.975708 
z"/>
<path fill="#6E106B" opacity="1.000000" stroke="none" 
	d="
M232.052612,291.312775 
	C232.656448,291.431549 233.323410,291.861237 234.019165,292.628052 
	C233.403900,292.518005 232.759811,292.070831 232.052612,291.312775 
z"/>
<path fill="#6F146F" opacity="1.000000" stroke="none" 
	d="
M235.046753,294.324036 
	C235.630173,294.456421 236.274704,294.898834 236.976929,295.662964 
	C236.392380,295.534485 235.750122,295.084259 235.046753,294.324036 
z"/>
<path fill="#6F146F" opacity="1.000000" stroke="none" 
	d="
M239.048050,298.327087 
	C239.644836,298.450165 240.306137,298.881958 241.004944,299.646545 
	C240.399170,299.531464 239.755875,299.083618 239.048050,298.327087 
z"/>
<path fill="#6E106B" opacity="1.000000" stroke="none" 
	d="
M354.757019,145.158630 
	C354.632660,145.762497 354.187836,146.386826 353.390686,147.018219 
	C353.504456,146.409897 353.970490,145.794495 354.757019,145.158630 
z"/>
<path fill="#6D0B6A" opacity="1.000000" stroke="none" 
	d="
M169.088318,165.119598 
	C169.419403,164.626114 169.929321,164.333435 170.751068,164.103424 
	C170.464310,164.550873 169.865738,164.935654 169.088318,165.119598 
z"/>
<path fill="#813B7F" opacity="1.000000" stroke="none" 
	d="
M333.056519,135.925476 
	C332.822052,135.579208 332.862305,135.141129 332.908936,134.373077 
	C333.343964,134.167175 333.772614,134.291290 334.201233,134.415405 
	C333.911255,134.888153 333.621277,135.360901 333.056519,135.925476 
z"/>
<path fill="#DEB0DC" opacity="1.000000" stroke="none" 
	d="
M302.200500,162.009338 
	C302.404846,161.729401 302.899078,161.462997 303.699890,161.184372 
	C303.501099,161.455719 302.995728,161.739288 302.200500,162.009338 
z"/>
<path fill="#6E106B" opacity="1.000000" stroke="none" 
	d="
M352.732300,147.065765 
	C352.580750,147.392502 352.138275,147.741470 351.379150,148.076111 
	C351.522095,147.737198 351.981750,147.412582 352.732300,147.065765 
z"/>
<path fill="#DBB1DF" opacity="1.000000" stroke="none" 
	d="
M340.790649,244.376160 
	C340.675720,244.644012 340.545013,245.189896 340.181427,245.904663 
	C340.223999,245.600403 340.499451,245.127304 340.790649,244.376160 
z"/>
<path fill="#771972" opacity="1.000000" stroke="none" 
	d="
M42.154358,113.790932 
	C42.061699,113.377426 42.208897,112.782173 42.643150,112.060120 
	C42.751541,112.491943 42.572880,113.050560 42.154358,113.790932 
z"/>
<path fill="#771972" opacity="1.000000" stroke="none" 
	d="
M39.307674,117.925926 
	C39.218586,117.744392 39.314114,117.406502 39.687775,117.002747 
	C39.881611,117.256287 39.723740,117.533844 39.307674,117.925926 
z"/>
<path fill="#6E106B" opacity="1.000000" stroke="none" 
	d="
M350.841492,148.184296 
	C350.897217,148.369202 350.746643,148.668549 350.334106,149.007111 
	C350.195465,148.748627 350.383118,148.499435 350.841492,148.184296 
z"/>
<path fill="#771972" opacity="1.000000" stroke="none" 
	d="
M94.199036,56.887001 
	C94.170692,56.731911 94.355064,56.458260 94.777542,56.099686 
	C94.878876,56.317707 94.677574,56.568932 94.199036,56.887001 
z"/>
<path fill="#73116F" opacity="1.000000" stroke="none" 
	d="
M5.330522,203.881012 
	C5.251888,203.719559 5.352250,203.394211 5.708746,202.968994 
	C5.885817,203.190842 5.734029,203.473495 5.330522,203.881012 
z"/>
<path fill="#771972" opacity="1.000000" stroke="none" 
	d="
M90.178284,59.874840 
	C90.144524,59.712387 90.330658,59.433819 90.757996,59.067421 
	C90.873962,59.297241 90.673615,59.556950 90.178284,59.874840 
z"/>
<path fill="#6E106B" opacity="1.000000" stroke="none" 
	d="
M289.712158,205.139694 
	C289.801483,205.306046 289.640045,205.540405 289.223053,205.837708 
	C289.143555,205.676117 289.308167,205.445129 289.712158,205.139694 
z"/>
<path fill="#6F146F" opacity="1.000000" stroke="none" 
	d="
M257.165771,309.450989 
	C257.358307,309.181000 257.634399,309.267090 257.960754,309.757965 
	C257.789795,309.906586 257.535919,309.788025 257.165771,309.450989 
z"/>
<path fill="#6E106B" opacity="1.000000" stroke="none" 
	d="
M288.761719,206.147537 
	C288.834564,206.306946 288.665436,206.535172 288.267426,206.844269 
	C288.174622,206.675674 288.335022,206.439407 288.761719,206.147537 
z"/>
<path fill="#771972" opacity="1.000000" stroke="none" 
	d="
M89.152023,60.874702 
	C89.111458,60.699623 89.295937,60.406242 89.736336,60.036488 
	C89.787193,60.225544 89.582138,60.490971 89.152023,60.874702 
z"/>
<path fill="#771972" opacity="1.000000" stroke="none" 
	d="
M71.171341,77.852341 
	C71.124306,77.676865 71.304688,77.378113 71.738785,76.987579 
	C71.794586,77.173553 71.596672,77.451302 71.171341,77.852341 
z"/>
<path fill="#6F146F" opacity="1.000000" stroke="none" 
	d="
M245.119232,304.190369 
	C245.285477,304.157806 245.558243,304.343109 245.899872,304.772278 
	C245.663254,304.884186 245.415588,304.681580 245.119232,304.190369 
z"/>
<path fill="#6F146F" opacity="1.000000" stroke="none" 
	d="
M244.119339,303.173584 
	C244.287704,303.133789 244.575577,303.313141 244.945251,303.740295 
	C244.707367,303.865021 244.444641,303.666565 244.119339,303.173584 
z"/>
<path fill="#6F146F" opacity="1.000000" stroke="none" 
	d="
M241.125336,300.176941 
	C241.291260,300.144623 241.568893,300.332703 241.921844,300.767029 
	C241.686172,300.879089 241.432785,300.673737 241.125336,300.176941 
z"/>
<path fill="#771972" opacity="1.000000" stroke="none" 
	d="
M47.176331,106.870628 
	C47.139839,106.707085 47.320244,106.418976 47.747437,106.044281 
	C47.793896,106.220490 47.593563,106.483276 47.176331,106.870628 
z"/>
<path fill="#771972" opacity="1.000000" stroke="none" 
	d="
M61.162144,88.867088 
	C61.126263,88.699570 61.311546,88.413612 61.745880,88.046616 
	C61.791058,88.226593 61.587185,88.487625 61.162144,88.867088 
z"/>
<path fill="#6F146F" opacity="1.000000" stroke="none" 
	d="
M238.117859,297.188385 
	C238.279358,297.157745 238.553879,297.343353 238.905121,297.771271 
	C238.677292,297.877472 238.426971,297.674469 238.117859,297.188385 
z"/>
<path fill="#6F146F" opacity="1.000000" stroke="none" 
	d="
M237.127899,296.183014 
	C237.294189,296.144714 237.580124,296.323242 237.946320,296.748840 
	C237.711365,296.869812 237.451691,296.671112 237.127899,296.183014 
z"/>
<path fill="#730D6D" opacity="1.000000" stroke="none" 
	d="
M337.135864,16.363214 
	C337.290375,16.282728 337.604065,16.375326 338.023315,16.710388 
	C337.813660,16.888594 337.535736,16.749741 337.135864,16.363214 
z"/>
<path fill="#6E106B" opacity="1.000000" stroke="none" 
	d="
M234.133636,293.173767 
	C234.302216,293.139801 234.578140,293.325745 234.923721,293.757721 
	C234.684799,293.871643 234.433990,293.668304 234.133636,293.173767 
z"/>
<path fill="#6E106B" opacity="1.000000" stroke="none" 
	d="
M230.133942,289.177063 
	C230.302689,289.138458 230.590073,289.318665 230.955170,289.748657 
	C230.716843,289.869995 230.456757,289.669128 230.133942,289.177063 
z"/>
<path fill="#771972" opacity="1.000000" stroke="none" 
	d="
M43.151375,111.844238 
	C43.099907,111.657303 43.272903,111.354889 43.710571,110.991562 
	C43.775440,111.196686 43.575638,111.462723 43.151375,111.844238 
z"/>
<path fill="#771972" opacity="1.000000" stroke="none" 
	d="
M60.148155,89.876801 
	C60.108494,89.705421 60.295143,89.411987 60.733902,89.029854 
	C60.782169,89.212349 60.578320,89.483559 60.148155,89.876801 
z"/>
<path fill="#6E106B" opacity="1.000000" stroke="none" 
	d="
M227.150055,285.185059 
	C227.324829,285.136139 227.611847,285.301758 227.967270,285.715424 
	C227.719894,285.855072 227.462112,285.667114 227.150055,285.185059 
z"/>
<path fill="#6E106B" opacity="1.000000" stroke="none" 
	d="
M226.114960,284.220551 
	C226.282104,284.168671 226.569366,284.326324 226.941742,284.722961 
	C226.707138,284.867706 226.443192,284.690430 226.114960,284.220551 
z"/>
<path fill="#771972" opacity="1.000000" stroke="none" 
	d="
M58.405670,91.884743 
	C58.337124,91.734642 58.438038,91.437729 58.774994,91.051468 
	C58.930153,91.256927 58.784859,91.515518 58.405670,91.884743 
z"/>
<path fill="#771972" opacity="1.000000" stroke="none" 
	d="
M57.214043,93.881294 
	C57.174870,93.722603 57.346592,93.433533 57.759567,93.049057 
	C57.878773,93.269913 57.686810,93.535660 57.214043,93.881294 
z"/>
<path fill="#81017F" opacity="1.000000" stroke="none" 
	d="
M496.025818,199.616318 
	C495.852905,199.414886 495.693390,198.910278 495.714874,198.258728 
	C495.943665,198.512253 495.991455,198.912689 496.025818,199.616318 
z"/>
<path fill="#E1B3E0" opacity="1.000000" stroke="none" 
	d="
M172.260773,339.454803 
	C224.389359,339.048157 276.709961,339.026978 329.497070,339.015320 
	C328.814911,339.349335 327.666412,339.956726 326.517426,339.957703 
	C275.824402,340.001343 225.131363,339.992065 174.438324,339.981934 
	C173.776459,339.981781 173.114624,339.889557 172.260773,339.454803 
z"/>
</svg>