<?xml version="1.0" encoding="UTF-8"?>
<svg version="1.1" xmlns="http://www.w3.org/2000/svg" width="640" height="640">
<path d="M0 0 C211.2 0 422.4 0 640 0 C640 211.2 640 422.4 640 640 C428.8 640 217.6 640 0 640 C0 428.8 0 217.6 0 0 Z " fill="#80007F" transform="translate(0,0)"/>
<path d="M0 0 C1.28788349 -0.00128164 1.28788349 -0.00128164 2.60178483 -0.00258917 C5.47145257 -0.00423295 8.34106154 0.00125936 11.21072388 0.00672913 C13.27069599 0.00701126 15.3306682 0.00685275 17.39064026 0.00628662 C22.97895852 0.00599968 28.56725532 0.01187986 34.1555686 0.01886058 C39.99720495 0.02511117 45.83884178 0.02569927 51.68048096 0.02688599 C62.74069247 0.02999426 73.80089411 0.03820089 84.86110127 0.04823548 C97.45350253 0.05941222 110.04590426 0.064911 122.63830924 0.06993091 C148.54021986 0.0803839 174.4421217 0.09797362 200.34402466 0.12025452 C197.15116178 3.34429964 193.95074181 6.348473 190.40652466 9.18275452 C186.01637034 12.74569268 181.65685507 16.33897047 177.34402466 19.99525452 C176.81172241 20.44006165 176.27942017 20.88486877 175.73098755 21.34315491 C174.92069092 22.03332703 174.92069092 22.03332703 174.09402466 22.73744202 C173.53855579 23.20821136 172.98308693 23.67898069 172.41078568 24.16401577 C170.22334921 26.15040449 170.22334921 26.15040449 168.15050888 28.81195927 C163.12763765 34.69132431 159.76620268 37.78992558 151.72836304 38.45410156 C148.77282416 38.53058289 145.8313125 38.47056751 142.87625122 38.39735413 C141.24067947 38.39756576 139.60510219 38.40268827 137.96955872 38.41230774 C134.46779329 38.42241265 130.96862245 38.39811291 127.46723175 38.34622002 C121.92768143 38.26418857 116.3896367 38.25928933 110.84957886 38.26394653 C102.08876168 38.26212757 93.32917094 38.20790622 84.56871486 38.13167912 C68.87402955 37.99659954 53.1789856 37.94625935 37.48377395 37.92224127 C31.98004722 37.91167791 26.47717477 37.87664012 20.97372389 37.82107818 C17.55036926 37.78973662 14.12706455 37.77437951 10.7035923 37.76264954 C9.11970992 37.75362174 7.53584912 37.73764238 5.95211601 37.71409798 C-5.17567932 37.20210825 -5.17567932 37.20210825 -14.65597534 42.12025452 C-18.22689298 47.48934579 -19.23952878 52.27003012 -19.16390991 58.62123108 C-19.17014987 59.43913242 -19.17638984 60.25703377 -19.18281889 61.09972 C-19.19868075 63.82040616 -19.18617169 66.54018788 -19.17355347 69.26087952 C-19.17897762 71.21950297 -19.18610192 73.17812233 -19.1947937 75.13673401 C-19.21299504 80.44251552 -19.20597261 85.74798516 -19.19327736 91.05377197 C-19.18313321 96.61272507 -19.19254697 102.1716519 -19.19882202 107.73060608 C-19.20609429 117.06496462 -19.1965217 126.39919647 -19.17745972 135.73353577 C-19.15569185 146.51726561 -19.16274351 157.30069292 -19.18476534 168.08441544 C-19.20293126 177.35174266 -19.2054718 186.61897893 -19.19501066 195.88631821 C-19.18878232 201.41751309 -19.18792205 206.94856589 -19.20115662 212.47975159 C-19.21273177 217.68046189 -19.20465873 222.88078304 -19.18157959 228.08145142 C-19.17630143 229.98735916 -19.17779095 231.89329978 -19.18663025 233.79919434 C-19.19760479 236.40632739 -19.18379975 239.01222316 -19.16390991 241.61927795 C-19.1728328 242.36870792 -19.18175569 243.11813789 -19.19094896 243.89027786 C-19.11148208 249.28158229 -18.03763898 253.81241561 -14.65597534 258.12025452 C-9.6183327 262.07888184 -4.32750457 262.70176354 1.88969421 262.62818909 C2.71238468 262.63442905 3.53507514 262.64066901 4.38269562 262.64709806 C7.11953347 262.66296104 9.85547236 262.65045045 12.59231567 262.63783264 C14.5624137 262.6432567 16.53250767 262.65038095 18.50259399 262.65907288 C23.83929852 262.67727411 29.17569298 262.67025214 34.51240277 262.65755653 C40.10252024 262.64741377 45.69261156 262.65682563 51.2827301 262.6631012 C60.668363 262.67037326 70.05386989 262.66080078 79.43948364 262.64173889 C90.28571685 262.61996473 101.13164935 262.62702735 111.97787529 262.64904451 C121.29699098 262.66720345 130.61601622 262.66975459 139.93514389 262.65928984 C145.49816469 262.65305847 151.06104418 262.65220969 156.62405586 262.66543579 C161.85348956 262.67700099 167.08253589 262.66895607 172.3119278 262.64585876 C174.2295435 262.64057556 176.14719189 262.64207878 178.06479454 262.65090942 C180.68541412 262.66186376 183.30479762 262.64810319 185.92533875 262.62818909 C186.6815725 262.63711197 187.43780626 262.64603486 188.2169562 262.65522814 C193.65951245 262.57517463 196.87079118 261.25930968 201.34402466 258.12025452 C205.9689505 252.82150088 205.87660036 246.25902173 205.73123169 239.58021545 C205.72550644 238.5546907 205.71978119 237.52916595 205.71388245 236.4725647 C205.69982867 234.25671831 205.67706988 232.04091338 205.64648819 229.82523346 C205.60125421 226.30931837 205.58624178 222.79446314 205.58007812 219.27827454 C205.55922837 209.28549144 205.50077033 199.29352508 205.3821106 189.30140686 C205.31152516 183.17750853 205.29004631 177.05502288 205.29882431 170.93074799 C205.29255045 168.60719146 205.26784243 166.2836042 205.22378922 163.96045685 C204.83393985 142.95933884 204.83393985 142.95933884 211.18850708 135.86146545 C212.86902552 134.24072617 214.58429028 132.65461855 216.34402466 131.12025452 C217.54799519 129.75476167 218.73462696 128.37331899 219.88699341 126.96400452 C223.96629129 122.34295292 228.30098067 117.97934825 232.65652466 113.62025452 C233.46670044 112.79783264 234.27687622 111.97541077 235.11160278 111.12806702 C235.88568481 110.35205139 236.65976685 109.57603577 237.45730591 108.77650452 C238.15638062 108.07332092 238.85545532 107.37013733 239.57571411 106.64564514 C241.34402466 105.12025452 241.34402466 105.12025452 243.34402466 105.12025452 C243.41427732 124.06212946 243.46709219 143.00397777 243.49946117 161.94595623 C243.51489382 170.74213722 243.53591398 179.538237 243.57034302 188.33436584 C243.60035619 196.00599771 243.61962581 203.67757072 243.62629014 211.34925967 C243.63018232 215.40690166 243.63925327 219.46437536 243.66121483 223.52196312 C243.68176889 227.35098479 243.68782081 231.17977087 243.6833477 235.00884247 C243.68416453 236.40470732 243.69001657 237.8005811 243.70164108 239.19639778 C243.84808868 257.70898433 239.36280104 272.48137383 226.53933716 286.02650452 C212.11742193 299.67047411 194.14643083 300.5734432 175.45559692 300.50843811 C173.47641715 300.51251073 171.49723966 300.51785645 169.51806641 300.52436829 C164.17710003 300.53796651 158.83630881 300.5327741 153.49533963 300.52323103 C147.88450758 300.51559435 142.27368975 300.52269122 136.66285706 300.52738953 C127.24234344 300.5328359 117.82190056 300.52568533 108.40139771 300.5113678 C97.53877132 300.49504823 86.67631396 300.50032934 75.81369168 300.51684701 C66.45785954 300.53049947 57.10207802 300.53236306 47.74623913 300.52453101 C42.17135441 300.51987451 36.59654889 300.51917352 31.02166939 300.52914047 C25.77743698 300.53786258 20.53342057 300.53169318 15.28921127 300.5144577 C13.3745287 300.51052051 11.45982768 300.5115789 9.54515266 300.5182457 C-10.31980779 300.58099065 -27.33737642 298.09227059 -42.36691284 283.77259827 C-52.55920731 271.96275536 -56.8141103 258.14171518 -56.79641724 242.70397949 C-56.79938836 241.88299886 -56.80235948 241.06201823 -56.80542064 240.2161594 C-56.81405714 237.47902111 -56.8156116 234.74192681 -56.81710815 232.004776 C-56.82173997 230.03633532 -56.82676512 228.06789554 -56.83215332 226.09945679 C-56.84524583 220.76025892 -56.85171633 215.42107361 -56.85616398 210.08186221 C-56.85910029 206.74140236 -56.86320619 203.40094589 -56.86766815 200.06048775 C-56.8813359 189.59533786 -56.89100562 179.13019577 -56.89487004 168.66503757 C-56.89934665 156.61026032 -56.91687918 144.55559668 -56.94587064 132.50085396 C-56.96753558 123.16638632 -56.97757692 113.83195054 -56.97891116 104.49745804 C-56.9799559 98.93029248 -56.98579289 93.36323384 -57.00373077 87.79609489 C-57.02029442 82.5536068 -57.02232693 77.31130502 -57.01359177 72.06879997 C-57.01282577 70.15411375 -57.0171058 68.23941717 -57.02705002 66.32475662 C-57.12102207 47.08960822 -55.05620646 29.90383475 -41.05831909 15.37025452 C-29.50152513 4.54633041 -15.66355862 -0.05733779 0 0 Z " fill="#FFFFFF" transform="translate(226.65597534179688,169.87974548339844)"/>
<path d="M0 0 C2.9375 2.4375 2.9375 2.4375 5 5 C5.70125 5.763125 6.4025 6.52625 7.125 7.3125 C11.82480518 14.04888743 13.02330943 20.86003864 12 29 C9.97649798 36.46768603 5.17759379 43.26450788 -1.3112793 47.51342773 C-3.86384897 48.87800584 -6.44473369 50.14031657 -9.0625 51.375 C-18.07155374 55.86350765 -26.06646712 60.83623722 -34 67 C-35.20429648 67.91814008 -36.40872684 68.83610458 -37.61328125 69.75390625 C-44.70020082 75.19969435 -51.44222828 80.92306333 -58 87 C-59.01081756 87.92026167 -60.02258261 88.83948341 -61.03515625 89.7578125 C-68.32669851 96.38021927 -75.43116198 103.04670953 -81.86328125 110.51953125 C-83.55747714 112.48628516 -85.26431064 114.43924073 -86.98046875 116.38671875 C-93.98609703 124.36018867 -100.69433709 132.4557351 -107 141 C-107.5053125 141.68465332 -108.010625 142.36930664 -108.53125 143.07470703 C-123.22116275 163.05704928 -137.02364581 183.76539784 -149.20288086 205.38256836 C-154.88972104 215.42365913 -160.0247711 221.73212911 -171.41015625 225.33984375 C-178.90946344 227.25143186 -185.23172765 225.44532362 -192 222 C-195.67984299 219.3313659 -198.8011065 216.22113894 -202 213 C-203.23726157 211.78541874 -204.47561897 210.57195315 -205.71484375 209.359375 C-211.5628283 203.60388298 -217.30459591 197.83093717 -222.59765625 191.5546875 C-224.16786282 189.74010067 -224.16786282 189.74010067 -227 187.5 C-229.309053 185.57578917 -230.92344215 183.98113346 -232.80078125 181.71484375 C-236.23461378 177.73953959 -239.90916428 174.07297342 -243.66796875 170.41015625 C-244.57653122 169.52056717 -244.57653122 169.52056717 -245.50344849 168.61300659 C-248.03508019 166.13526138 -250.56776162 163.65906181 -253.11987305 161.20239258 C-255.00187078 159.38749779 -256.86710101 157.55664929 -258.73046875 155.72265625 C-259.30033005 155.18173843 -259.87019135 154.64082062 -260.45732117 154.08351135 C-265.50534182 149.06933926 -268.4538838 143.46124679 -269.56640625 136.41015625 C-269.5558374 127.352655 -268.23602103 120.86221544 -262.203125 113.9375 C-256.54726472 108.50787413 -250.78400319 106.36038126 -243.0625 105.625 C-232.48054251 106.23027962 -226.36663277 110.58607906 -219.05859375 117.93554688 C-217.00464149 119.9953453 -214.93046802 122.03354533 -212.85198975 124.06855774 C-210.31083394 126.55929869 -207.7803391 129.0607794 -205.25 131.5625 C-204.74416382 132.06093414 -204.23832764 132.55936829 -203.71716309 133.07290649 C-202.26959926 134.50280922 -200.82994537 135.94070608 -199.390625 137.37890625 C-198.1226709 138.64069702 -198.1226709 138.64069702 -196.82910156 139.92797852 C-195 142 -195 142 -195 144 C-194.40316406 144.25523437 -193.80632812 144.51046875 -193.19140625 144.7734375 C-190.15933177 146.47053445 -188.5572396 148.81950291 -186.46484375 151.5390625 C-184.99078183 153.35308104 -184.99078183 153.35308104 -182 153 C-180.26265105 151.00658309 -180.26265105 151.00658309 -178.62890625 148.34765625 C-177.97809082 147.35161377 -177.32727539 146.35557129 -176.65673828 145.3293457 C-175.96563965 144.25128662 -175.27454102 143.17322754 -174.5625 142.0625 C-173.11500562 139.84783034 -171.6657754 137.63429427 -170.21484375 135.421875 C-169.14145752 133.77928711 -169.14145752 133.77928711 -168.04638672 132.10351562 C-157.91776153 116.74261328 -146.80084634 102.11136803 -135 88 C-134.53303711 87.44135254 -134.06607422 86.88270508 -133.58496094 86.30712891 C-127.96299801 79.60289233 -122.2817458 73.10226735 -116 67 C-114.11458945 65.11458945 -112.40004987 63.16688638 -110.6875 61.125 C-106.37947245 56.11057532 -101.44261919 51.78286539 -96.52880859 47.38037109 C-95.0851858 46.0769148 -93.66105719 44.75196137 -92.23828125 43.42578125 C-86.06356508 37.68374592 -79.62588283 32.40651568 -72.85888672 27.38330078 C-71.56970585 26.42394974 -70.28517616 25.45832898 -69.00439453 24.48779297 C-22.35682173 -10.82688851 -22.35682173 -10.82688851 0 0 Z " fill="#FFFFFF" transform="translate(509,169)"/>
</svg>
