<?xml version="1.0" standalone="no"?>
<!DOCTYPE svg PUBLIC "-//W3C//DTD SVG 20010904//EN"
 "http://www.w3.org/TR/2001/REC-SVG-20010904/DTD/svg10.dtd">
<svg version="1.0" xmlns="http://www.w3.org/2000/svg"
 width="640.000000pt" height="640.000000pt" viewBox="0 0 640.000000 640.000000"
 preserveAspectRatio="xMidYMid meet">

<g transform="translate(0.000000,640.000000) scale(0.100000,-0.100000)"
fill="#000000" stroke="none">
<path d="M0 3200 l0 -3200 3200 0 3200 0 0 3200 0 3200 -3200 0 -3200 0 0
-3200z m5054 1521 c121 -53 184 -204 140 -333 -24 -71 -76 -124 -168 -170
-323 -161 -716 -523 -1032 -948 -109 -146 -242 -348 -347 -525 -52 -88 -110
-178 -128 -199 -47 -54 -128 -90 -204 -91 -113 0 -130 13 -520 411 -386 393
-395 404 -395 514 0 197 190 320 377 244 26 -11 111 -89 262 -240 l223 -224
101 152 c368 559 755 966 1192 1255 109 72 252 151 308 169 53 18 133 11 191
-15z m-790 -30 c-5 -5 -56 -46 -114 -92 -57 -46 -148 -126 -201 -176 l-96 -93
-828 0 -828 0 -43 -25 c-28 -16 -49 -39 -63 -68 -21 -43 -21 -49 -21 -1039 l0
-995 23 -43 c16 -30 37 -51 67 -67 l43 -23 1000 0 1000 0 43 25 c28 16 49 39
63 68 21 42 21 56 21 573 l0 529 53 65 c61 76 297 320 309 320 5 0 7 -341 6
-757 l-3 -758 -23 -65 c-50 -139 -149 -253 -270 -311 -124 -60 -104 -59 -1192
-59 -631 0 -1019 4 -1060 10 -97 16 -219 78 -289 147 -73 74 -136 198 -151
298 -7 46 -10 418 -8 1090 l3 1020 23 65 c52 143 143 248 268 310 122 60 93
58 1233 59 604 1 1041 -3 1035 -8z"/>
</g>
</svg>
